<?xml version="1.0" standalone="no"?>
<!DOCTYPE svg PUBLIC "-//W3C//DTD SVG 20010904//EN"
 "http://www.w3.org/TR/2001/REC-SVG-20010904/DTD/svg10.dtd">
<svg version="1.0" xmlns="http://www.w3.org/2000/svg"
 width="512.000000pt" height="512.000000pt" viewBox="0 0 512.000000 512.000000"
 preserveAspectRatio="xMidYMid meet">
<metadata>
Created by potrace 1.11, written by Peter Selinger 2001-2013
</metadata>
<g transform="translate(0.000000,512.000000) scale(0.100000,-0.100000)"
fill="#000000" stroke="none">
<path d="M2379 5116 c-2 -2 -35 -6 -74 -10 -103 -9 -246 -33 -360 -62 -118
-29 -286 -83 -299 -95 -6 -5 -16 -9 -24 -9 -20 0 -224 -97 -330 -156 -282
-160 -501 -350 -753 -651 -38 -46 -167 -241 -211 -319 -68 -123 -129 -255
-176 -384 -32 -88 -78 -244 -86 -293 -3 -15 -7 -35 -10 -45 -3 -9 -7 -34 -11
-56 -3 -21 -7 -41 -9 -45 -4 -6 -12 -67 -26 -201 -8 -81 -5 -463 5 -520 3 -19
13 -78 21 -130 59 -358 188 -687 391 -993 339 -511 867 -895 1453 -1055 107
-30 245 -57 340 -68 30 -3 77 -10 105 -14 50 -8 468 -5 515 4 14 2 45 7 70 10
36 5 171 31 271 51 9 2 49 13 90 25 828 245 1476 880 1733 1697 40 127 80 310
92 417 3 28 8 62 10 76 10 46 12 424 4 505 -29 285 -92 528 -203 784 -225 520
-627 959 -1127 1231 -81 43 -131 67 -275 130 -130 57 -428 135 -590 155 -27 4
-61 9 -75 11 -28 6 -456 15 -461 10z m450 -170 c14 -3 47 -8 75 -11 88 -10
269 -53 387 -91 470 -152 866 -431 1170 -824 72 -94 149 -205 149 -216 0 -4 6
-15 14 -23 21 -23 130 -244 164 -331 69 -176 127 -391 146 -541 2 -19 8 -61
12 -94 16 -123 10 -477 -11 -600 -21 -123 -23 -136 -41 -213 -64 -274 -203
-583 -372 -822 -25 -36 -51 -70 -57 -76 -5 -6 -23 -29 -40 -50 -95 -121 -247
-272 -386 -381 -305 -238 -644 -393 -1024 -467 -167 -33 -206 -37 -410 -41
-223 -4 -350 8 -550 50 -706 150 -1318 627 -1644 1281 -95 192 -176 430 -206
607 -3 17 -8 39 -10 47 -2 8 -7 42 -11 75 -3 33 -8 64 -11 68 -9 15 -11 400
-3 480 36 336 108 587 250 868 281 556 781 991 1368 1190 82 28 242 71 307 83
83 16 160 27 226 32 41 4 76 8 78 10 6 5 404 -4 430 -10z"/>
<path d="M3172 4644 c-17 -31 -2 -53 52 -70 374 -122 738 -375 987 -684 134
-168 272 -413 342 -609 37 -104 60 -131 92 -107 18 13 19 18 7 63 -36 133
-154 381 -255 533 -266 402 -660 710 -1111 866 -82 28 -102 30 -114 8z"/>
<path d="M3100 4411 c-17 -34 -1 -48 93 -82 520 -185 937 -598 1127 -1114 37
-101 61 -131 91 -115 25 14 24 32 -5 116 -116 340 -365 681 -661 905 -150 113
-302 197 -486 269 -115 45 -144 49 -159 21z"/>
<path d="M3030 4185 c-24 -29 -2 -52 78 -80 207 -73 408 -195 571 -347 178
-167 322 -379 406 -600 19 -51 39 -99 43 -107 29 -51 78 -30 68 28 -20 122
-161 390 -291 551 -199 247 -444 426 -740 539 -89 34 -117 38 -135 16z"/>
<path d="M2405 3426 c-101 -21 -171 -45 -242 -82 -259 -137 -428 -370 -473
-654 -12 -75 -4 -263 14 -328 8 -29 14 -55 15 -57 0 -16 43 -118 67 -161 120
-218 313 -370 552 -435 83 -23 280 -31 377 -15 313 51 603 311 688 616 24 89
29 120 33 222 13 353 -180 668 -508 827 -37 17 -77 34 -89 36 -12 3 -36 9 -53
14 -83 27 -287 36 -381 17z m335 -170 c332 -90 549 -385 536 -731 -12 -296
-204 -547 -497 -650 -67 -24 -114 -30 -239 -29 -101 1 -126 5 -202 31 -225 78
-393 248 -465 473 -23 73 -27 102 -27 205 0 221 72 389 227 531 104 95 230
159 360 183 69 13 237 5 307 -13z"/>
<path d="M2500 2709 c-105 -44 -131 -178 -50 -259 70 -70 171 -64 234 13 26
33 30 46 31 97 0 62 -16 95 -66 132 -29 22 -114 32 -149 17z m107 -87 c27 -15
39 -67 23 -98 -19 -34 -63 -49 -99 -35 -44 19 -64 78 -38 112 29 38 70 45 114
21z"/>
<path d="M928 2084 c-15 -16 -14 -23 14 -103 168 -477 552 -863 1026 -1035 84
-30 105 -32 122 -11 24 29 2 52 -78 80 -273 96 -552 294 -733 520 -101 127
-208 320 -264 475 -32 92 -52 109 -87 74z"/>
<path d="M702 2018 c-19 -19 -15 -41 24 -146 151 -401 433 -746 794 -972 148
-93 412 -210 472 -210 19 0 39 36 31 56 -2 7 -39 24 -81 39 -534 188 -949 597
-1147 1130 -20 55 -38 101 -39 101 -11 10 -45 11 -54 2z"/>
<path d="M483 1949 c-13 -5 -23 -17 -23 -28 0 -63 141 -381 236 -531 211 -332
511 -607 856 -783 140 -72 177 -88 278 -122 88 -30 102 -31 117 -6 15 24 -6
56 -44 66 -163 40 -509 228 -678 367 -113 93 -277 266 -378 398 -102 133 -226
372 -289 555 -25 75 -45 96 -75 84z"/>
</g>
</svg>
