<?xml version="1.0" encoding="iso-8859-1"?>
<!-- Generator: Adobe Illustrator 19.0.0, SVG Export Plug-In . SVG Version: 6.00 Build 0)  -->
<svg version="1.1" id="Layer_1" xmlns="http://www.w3.org/2000/svg" xmlns:xlink="http://www.w3.org/1999/xlink" x="0px" y="0px"
	 viewBox="0 0 511.996 511.996" style="enable-background:new 0 0 511.996 511.996;" xml:space="preserve">
<g>
	<g>
		<g>
			<circle cx="255.92" cy="136.89" r="10.24"/>
			<circle cx="255.92" cy="366.842" r="10.24"/>
			<circle cx="337.225" cy="170.567" r="10.24"/>
			<circle cx="174.615" cy="333.164" r="10.24"/>
			<circle cx="370.903" cy="251.859" r="10.24"/>
			<circle cx="140.937" cy="251.859" r="10.24"/>
			<circle cx="337.225" cy="333.164" r="10.24"/>
			<circle cx="174.615" cy="170.567" r="10.24"/>
			<path d="M265.772,185.096c0-5.44-4.411-9.851-9.851-9.851s-9.851,4.411-9.851,9.851v72.154c0,2.75,1.149,5.375,3.171,7.24
				l65.237,60.201c1.894,1.748,4.29,2.611,6.678,2.611c2.655,0,5.301-1.067,7.243-3.171c3.69-3.998,3.44-10.231-0.558-13.92
				l-62.068-57.276V185.096z"/>
			<path d="M487.88,42.83L472.151,27.1C456.598,11.547,435.92,2.982,413.924,2.982s-42.674,8.565-58.227,24.118l-8.006,8.006
				c-3.847,3.847-3.847,10.085,0,13.931l36.313,36.314c-35.765-26.718-80.111-42.554-128.086-42.554
				c-47.718,0-91.839,15.673-127.503,42.13l35.888-35.888c3.847-3.847,3.847-10.085,0-13.931l-8.006-8.006
				c-15.552-15.554-36.23-24.12-58.224-24.12C76.08,2.982,55.4,11.547,39.847,27.1L24.118,42.83C8.565,58.383,0,79.061,0,101.056
				s8.565,42.674,24.118,58.227l8.006,8.006c1.847,1.848,4.353,2.886,6.965,2.886c2.613,0,5.119-1.038,6.965-2.886l37.541-37.542
				c-26.458,35.665-42.13,79.786-42.13,127.503c0,55.663,21.322,106.435,56.22,144.593l-25.923,65.727
				c-0.026,0.066-0.051,0.131-0.075,0.196c-3.217,8.695-1.96,18.137,3.448,25.903c6.688,9.607,18.447,15.343,31.455,15.344h0.001
				c1.149,0,2.313-0.046,3.456-0.137c9.742-0.766,18.546-4.715,24.792-11.124c0.089-0.092,0.177-0.187,0.263-0.281l38.159-42.346
				c25.451,10.671,53.376,16.578,82.656,16.578c29.251,0,57.148-5.895,82.579-16.545l38.132,42.314
				c0.085,0.096,0.173,0.189,0.264,0.281c6.246,6.407,15.05,10.357,24.792,11.124c1.149,0.091,2.312,0.137,3.456,0.137
				c0.001,0,0,0,0.001,0c13.006,0,24.766-5.735,31.454-15.34c5.409-7.768,6.666-17.211,3.448-25.907
				c-0.025-0.066-0.05-0.131-0.075-0.196l-25.891-65.645c34.943-38.167,56.295-88.972,56.295-144.674
				c0-47.975-15.837-92.32-42.554-128.085l38.123,38.124c1.847,1.848,4.353,2.886,6.965,2.886s5.119-1.038,6.965-2.886l8.006-8.006
				c15.553-15.553,24.118-36.231,24.118-58.227S503.433,58.383,487.88,42.83z M39.091,146.391l-1.04-1.04
				c-11.832-11.832-18.348-27.564-18.348-44.295s6.516-32.463,18.348-44.295l15.728-15.73C65.61,29.201,81.34,22.685,98.073,22.685
				c16.732,0,32.463,6.516,44.295,18.347l1.04,1.04L39.091,146.391z M120.615,484.119c-2.87,2.874-7.271,4.735-12.108,5.116
				c-0.638,0.05-1.282,0.076-1.912,0.076c0,0,0,0-0.001,0c-7.731,0-12.965-3.564-15.288-6.898c-1.727-2.483-2.121-5.082-1.169-7.729
				l22.743-57.662c12.745,11.434,26.728,21.242,41.786,29.31L120.615,484.119z M421.598,474.684c0.952,2.648,0.56,5.249-1.169,7.73
				c-2.322,3.335-7.557,6.896-15.286,6.896c-0.632,0-1.274-0.026-1.914-0.076c-4.838-0.38-9.239-2.242-12.109-5.116l-34.015-37.747
				c15.053-8.06,29.035-17.858,41.779-29.28L421.598,474.684z M450.672,257.25c0,107.385-87.365,194.751-194.752,194.751
				c-107.385,0-194.751-87.365-194.751-194.751c0-107.387,87.365-194.752,194.751-194.752
				C363.308,62.499,450.672,149.863,450.672,257.25z M473.95,145.351l-1.04,1.04L368.591,42.072l1.04-1.04
				c11.832-11.831,27.562-18.347,44.295-18.347s32.463,6.516,44.295,18.347L473.95,56.76c11.832,11.832,18.348,27.562,18.348,44.295
				C492.298,117.788,485.781,133.519,473.95,145.351z"/>
			<path d="M367.589,127.745c-31.005-26.758-70.663-41.493-111.669-41.493c-41.028,0-80.703,14.75-111.716,41.535
				c-30.688,26.504-51.013,63.05-57.231,102.906c-0.839,5.376,2.84,10.413,8.215,11.251c0.515,0.081,1.026,0.12,1.531,0.12
				c4.771,0,8.963-3.473,9.721-8.334c11.551-74.039,74.416-127.776,149.48-127.776c75.007,0,137.864,53.689,149.463,127.662
				c0.843,5.375,5.884,9.045,11.258,8.207c5.375-0.843,9.05-5.883,8.207-11.258C418.603,190.736,398.269,154.221,367.589,127.745z"
				/>
			<path d="M417.232,263.926c-5.419-0.55-10.247,3.393-10.796,8.806c-7.864,77.427-72.57,135.815-150.515,135.815
				S113.27,350.158,105.407,272.731c-0.549-5.414-5.384-9.356-10.796-8.806c-5.413,0.549-9.356,5.383-8.806,10.796
				c4.256,41.907,23.837,80.653,55.139,109.102c31.518,28.647,72.351,44.423,114.977,44.423c42.627,0,83.459-15.776,114.977-44.423
				c31.3-28.449,50.883-67.195,55.139-109.102C426.587,269.309,422.645,264.475,417.232,263.926z"/>
		</g>
	</g>
</g>
<g>
</g>
<g>
</g>
<g>
</g>
<g>
</g>
<g>
</g>
<g>
</g>
<g>
</g>
<g>
</g>
<g>
</g>
<g>
</g>
<g>
</g>
<g>
</g>
<g>
</g>
<g>
</g>
<g>
</g>
</svg>
